<svg width="160" height="47" viewBox="0 0 160 47" fill="none" xmlns="http://www.w3.org/2000/svg">
<path d="M17.856 18.032C24.1707 18.032 28.8213 19.2907 31.808 21.808C34.8373 24.3253 36.352 27.696 36.352 31.92C36.352 34.6507 35.6693 37.1467 34.304 39.408C32.9387 41.6267 30.848 43.4187 28.032 44.784C25.2587 46.1067 21.824 46.768 17.728 46.768C14.5707 46.768 11.456 46.3627 8.384 45.552C5.35467 44.6987 2.77333 43.504 0.64 41.968L4.736 34.032C6.44267 35.312 8.40533 36.3147 10.624 37.04C12.8427 37.7227 15.1253 38.064 17.472 38.064C20.0747 38.064 22.1227 37.552 23.616 36.528C25.1093 35.504 25.856 34.0747 25.856 32.24C25.856 30.32 25.0667 28.8693 23.488 27.888C21.952 26.9067 19.264 26.416 15.424 26.416H3.968L6.272 1.2H33.6V9.52H14.912L14.208 18.032H17.856ZM59.7585 46.768C56.0465 46.768 52.7398 45.8507 49.8385 44.016C46.9372 42.1813 44.6545 39.536 42.9905 36.08C41.3692 32.5813 40.5585 28.4213 40.5585 23.6C40.5585 18.7787 41.3692 14.64 42.9905 11.184C44.6545 7.68533 46.9372 5.01866 49.8385 3.184C52.7398 1.34933 56.0465 0.431999 59.7585 0.431999C63.4705 0.431999 66.7772 1.34933 69.6785 3.184C72.5798 5.01866 74.8412 7.68533 76.4625 11.184C78.1265 14.64 78.9585 18.7787 78.9585 23.6C78.9585 28.4213 78.1265 32.5813 76.4625 36.08C74.8412 39.536 72.5798 42.1813 69.6785 44.016C66.7772 45.8507 63.4705 46.768 59.7585 46.768ZM59.7585 38C62.4892 38 64.6225 36.8267 66.1585 34.48C67.7372 32.1333 68.5265 28.5067 68.5265 23.6C68.5265 18.6933 67.7372 15.0667 66.1585 12.72C64.6225 10.3733 62.4892 9.2 59.7585 9.2C57.0705 9.2 54.9372 10.3733 53.3585 12.72C51.8225 15.0667 51.0545 18.6933 51.0545 23.6C51.0545 28.5067 51.8225 32.1333 53.3585 34.48C54.9372 36.8267 57.0705 38 59.7585 38ZM103.196 46.768C99.484 46.768 96.1773 45.8507 93.276 44.016C90.3747 42.1813 88.092 39.536 86.428 36.08C84.8067 32.5813 83.996 28.4213 83.996 23.6C83.996 18.7787 84.8067 14.64 86.428 11.184C88.092 7.68533 90.3747 5.01866 93.276 3.184C96.1773 1.34933 99.484 0.431999 103.196 0.431999C106.908 0.431999 110.215 1.34933 113.116 3.184C116.017 5.01866 118.279 7.68533 119.9 11.184C121.564 14.64 122.396 18.7787 122.396 23.6C122.396 28.4213 121.564 32.5813 119.9 36.08C118.279 39.536 116.017 42.1813 113.116 44.016C110.215 45.8507 106.908 46.768 103.196 46.768ZM103.196 38C105.927 38 108.06 36.8267 109.596 34.48C111.175 32.1333 111.964 28.5067 111.964 23.6C111.964 18.6933 111.175 15.0667 109.596 12.72C108.06 10.3733 105.927 9.2 103.196 9.2C100.508 9.2 98.3747 10.3733 96.796 12.72C95.26 15.0667 94.492 18.6933 94.492 23.6C94.492 28.5067 95.26 32.1333 96.796 34.48C98.3747 36.8267 100.508 38 103.196 38ZM159.62 27.504H148.484V38.384H140.228V27.504H129.156V19.696H140.228V8.816H148.484V19.696H159.62V27.504Z" fill="white"/>
</svg>
