<svg width="176" height="33" viewBox="0 0 176 33" fill="none" xmlns="http://www.w3.org/2000/svg">
<path d="M8.22852 23.4062V9.48438C8.22852 9.48438 11.1055 9.48438 16.8594 9.48438C18.2539 9.48438 19.4492 10.1699 20.4453 11.541C21.4531 12.9004 21.957 14.5352 21.957 16.4453C21.957 18.3672 21.4531 20.0078 20.4453 21.3672C19.4492 22.7266 18.2539 23.4062 16.8594 23.4062H8.22852ZM9.49414 22.1406H16.8594C17.9023 22.1406 18.793 21.584 19.5312 20.4707C20.2812 19.3574 20.6562 18.0156 20.6562 16.4453C20.6562 14.8633 20.2812 13.5215 19.5312 12.4199C18.793 11.3066 17.9023 10.75 16.8594 10.75H9.49414V22.1406ZM6.96289 24.6719H16.8594C18.6055 24.6719 20.1055 23.8691 21.3594 22.2637C22.625 20.6465 23.2578 18.707 23.2578 16.4453C23.2578 14.957 22.9648 13.5801 22.3789 12.3145C21.8047 11.0488 21.0254 10.0527 20.041 9.32617C19.0684 8.58789 18.0078 8.21875 16.8594 8.21875H6.96289V24.6719ZM5.69727 25.9375V6.95312H16.8594C18.2305 6.95312 19.5078 7.375 20.6914 8.21875C21.875 9.0625 22.8125 10.2168 23.5039 11.6816C24.207 13.1348 24.5586 14.7227 24.5586 16.4453C24.5586 18.1562 24.207 19.7441 23.5039 21.209C22.8125 22.6738 21.875 23.8281 20.6914 24.6719C19.5078 25.5156 18.2305 25.9375 16.8594 25.9375H5.69727ZM4.43164 27.2031H16.8594C18.4648 27.2031 19.9531 26.7227 21.3242 25.7617C22.707 24.8008 23.8086 23.4941 24.6289 21.8418C25.4492 20.1895 25.8594 18.3906 25.8594 16.4453C25.8594 14.5117 25.4492 12.7188 24.6289 11.0664C23.8086 9.40234 22.707 8.08984 21.3242 7.12891C19.9414 6.16797 18.4531 5.6875 16.8594 5.6875H4.43164V27.2031ZM3.16602 28.4688V4.42188H16.8594C18.6875 4.42188 20.3926 4.96094 21.9746 6.03906C23.5566 7.10547 24.8164 8.56445 25.7539 10.416C26.6914 12.2676 27.1602 14.2773 27.1602 16.4453C27.1602 18.6133 26.6914 20.623 25.7539 22.4746C24.8164 24.3262 23.5566 25.791 21.9746 26.8691C20.3926 27.9355 18.6875 28.4688 16.8594 28.4688H3.16602ZM1.90039 29.7344H16.8594C18.3945 29.7344 19.877 29.3828 21.3066 28.6797C22.7363 27.9766 23.9727 27.0332 25.0156 25.8496C26.0586 24.666 26.8906 23.2539 27.5117 21.6133C28.1445 19.9609 28.4609 18.2383 28.4609 16.4453C28.4609 14.6523 28.1445 12.9355 27.5117 11.2949C26.8906 9.6543 26.0586 8.24219 25.0156 7.05859C23.9727 5.86328 22.7363 4.91406 21.3066 4.21094C19.877 3.50781 18.3945 3.15625 16.8594 3.15625H1.90039V29.7344ZM16.8594 31H0.634766V1.89062H16.8594C19.1445 1.89062 21.2773 2.54102 23.2578 3.8418C25.2383 5.14258 26.8145 6.91211 27.9863 9.15039C29.1699 11.3887 29.7617 13.8203 29.7617 16.4453C29.7617 18.4141 29.4102 20.3008 28.707 22.1055C28.0156 23.8984 27.0898 25.4453 25.9297 26.7461C24.7695 28.0469 23.3926 29.084 21.7988 29.8574C20.2168 30.6191 18.5703 31 16.8594 31ZM50.5215 18.5195C50.5215 17.0195 50.0586 15.8594 49.1328 15.0391C48.207 14.2188 46.9824 13.8086 45.459 13.8086C44.1699 13.8086 43.0625 14.2539 42.1367 15.1445C41.2109 16.0352 40.748 17.1016 40.748 18.3438C40.748 19.0469 40.8418 19.6797 41.0293 20.2422C41.2168 20.793 41.4688 21.2559 41.7852 21.6309C42.1133 21.9941 42.5 22.2988 42.9453 22.5449C43.3906 22.7793 43.8535 22.9492 44.334 23.0547C44.8262 23.1602 45.3477 23.2129 45.8984 23.2129C47.2344 23.2129 48.4531 22.8848 49.5547 22.2285V23.4941C48.418 24.0918 47.1934 24.3906 45.8809 24.3906C45.0371 24.3906 44.2402 24.2793 43.4902 24.0566C42.752 23.8223 42.0781 23.4766 41.4688 23.0195C40.8594 22.5508 40.373 21.918 40.0098 21.1211C39.6582 20.3125 39.4824 19.3867 39.4824 18.3438C39.4824 16.7266 40.0508 15.3555 41.1875 14.2305C42.3242 13.1055 43.748 12.543 45.459 12.543C47.3457 12.543 48.8691 13.0762 50.0293 14.1426C51.2012 15.1973 51.7871 16.6562 51.7871 18.5195V31H50.5215V18.5195ZM54.3184 18.5195V31H53.0527V18.5195C53.0527 16.3047 52.3438 14.5469 50.9258 13.2461C49.5078 11.9336 47.6855 11.2773 45.459 11.2773C43.3965 11.2773 41.6738 11.9629 40.291 13.334C38.9082 14.7051 38.2168 16.375 38.2168 18.3438C38.2168 19.5391 38.4219 20.6113 38.832 21.5605C39.2539 22.5098 39.8223 23.2715 40.5371 23.8457C41.252 24.4199 42.0488 24.8594 42.9277 25.1641C43.8184 25.457 44.7559 25.6035 45.7402 25.6035C47.0762 25.6035 48.3477 25.293 49.5547 24.6719V26.0078C48.2891 26.5352 47.0117 26.7988 45.7227 26.7988C44.5625 26.7988 43.4609 26.623 42.418 26.2715C41.375 25.9082 40.4434 25.3867 39.623 24.707C38.8027 24.0156 38.1523 23.125 37.6719 22.0352C37.1914 20.9336 36.9512 19.7031 36.9512 18.3438C36.9512 16.0352 37.7656 14.0723 39.3945 12.4551C41.0352 10.8262 43.0566 10.0117 45.459 10.0117C47.1465 10.0117 48.6582 10.3574 49.9941 11.0488C51.3301 11.7285 52.3848 12.7188 53.1582 14.0195C53.9316 15.3203 54.3184 16.8203 54.3184 18.5195ZM56.8496 18.5195V31H55.584V18.5195C55.584 16.5859 55.1387 14.875 54.248 13.3867C53.3691 11.8867 52.1621 10.7383 50.627 9.94141C49.0918 9.14453 47.3691 8.74609 45.459 8.74609C43.6426 8.74609 41.9844 9.17969 40.4844 10.0469C38.9844 10.9023 37.8066 12.0625 36.9512 13.5273C36.1074 14.9922 35.6855 16.5977 35.6855 18.3438C35.6855 19.8438 35.9609 21.2148 36.5117 22.457C37.0625 23.6875 37.8008 24.7012 38.7266 25.498C39.6641 26.2949 40.7246 26.916 41.9082 27.3613C43.1035 27.7949 44.3516 28.0117 45.6523 28.0117C46.9766 28.0117 48.2773 27.7363 49.5547 27.1855V28.4688C48.2188 28.9727 46.9062 29.2246 45.6172 29.2246C43.5898 29.2246 41.7266 28.7676 40.0273 27.8535C38.3281 26.9395 36.9688 25.6445 35.9492 23.9688C34.9297 22.293 34.4199 20.418 34.4199 18.3438C34.4199 16.8672 34.7012 15.4609 35.2637 14.125C35.8379 12.7891 36.6113 11.6348 37.584 10.6621C38.5566 9.68945 39.7285 8.91602 41.0996 8.3418C42.4707 7.76758 43.9238 7.48047 45.459 7.48047C47.6035 7.48047 49.5371 7.9375 51.2598 8.85156C52.9941 9.76562 54.3594 11.0664 55.3555 12.7539C56.3516 14.4414 56.8496 16.3633 56.8496 18.5195ZM59.3809 18.5195V31H58.1152V18.5195C58.1152 16.1289 57.5586 13.9961 56.4453 12.1211C55.332 10.2344 53.8145 8.78125 51.8926 7.76172C49.9707 6.73047 47.8262 6.21484 45.459 6.21484C43.1855 6.21484 41.1055 6.75977 39.2188 7.84961C37.332 8.93945 35.8496 10.416 34.7715 12.2793C33.6934 14.1309 33.1543 16.1523 33.1543 18.3438C33.1543 19.7852 33.3828 21.1562 33.8398 22.457C34.3086 23.7461 34.9414 24.877 35.7383 25.8496C36.5469 26.8105 37.4727 27.6426 38.5156 28.3457C39.5703 29.0488 40.7012 29.582 41.9082 29.9453C43.127 30.3086 44.3633 30.4902 45.6172 30.4902C47 30.4902 48.3125 30.2266 49.5547 29.6992V31C48.2539 31.457 46.918 31.6855 45.5469 31.6855C44.1289 31.6855 42.7461 31.4863 41.3984 31.0879C40.0625 30.6895 38.8203 30.1035 37.6719 29.3301C36.5352 28.5449 35.5332 27.625 34.666 26.5703C33.7988 25.5039 33.1191 24.2617 32.627 22.8438C32.1348 21.4258 31.8887 19.9258 31.8887 18.3438C31.8887 16.5273 32.2285 14.7988 32.9082 13.1582C33.5996 11.5059 34.5371 10.082 35.7207 8.88672C36.916 7.67969 38.3574 6.72461 40.0449 6.02148C41.7441 5.30664 43.5488 4.94922 45.459 4.94922C47.4043 4.94922 49.2324 5.27734 50.9434 5.93359C52.6543 6.58984 54.1309 7.50391 55.373 8.67578C56.6152 9.83594 57.5938 11.2656 58.3086 12.9648C59.0234 14.6641 59.3809 16.5156 59.3809 18.5195ZM85.4844 5.6875H86.75L78.7871 22.457V31H77.5215V22.457L85.4844 5.6875ZM82.9531 5.6875H84.2188L76.2559 22.457V31H74.9902V22.457L82.9531 5.6875ZM80.4219 5.6875H81.6875L73.7246 22.457V31H72.459V22.457L80.4219 5.6875ZM77.8906 5.6875H79.1562L71.1934 22.457V31H69.9277V22.457L61.4375 5.6875H62.7031L70.543 21.1738L77.8906 5.6875ZM63.9863 5.6875H65.252L71.5273 17.623L70.8945 19.0117L63.9863 5.6875ZM66.5176 5.6875H67.8008L72.793 14.8457L72.1426 16.2344L66.5176 5.6875ZM69.084 5.6875H70.3496L74.0586 12.0859L73.4258 13.4746L69.084 5.6875ZM103.062 11.5234C101.703 12.8828 101.023 14.5234 101.023 16.4453C101.023 18.3672 101.703 20.0078 103.062 21.3672C104.422 22.7266 106.062 23.4062 107.984 23.4062C109.906 23.4062 111.547 22.7266 112.906 21.3672C114.266 20.0078 114.945 18.3672 114.945 16.4453C114.945 14.5234 114.266 12.8828 112.906 11.5234C111.547 10.1641 109.906 9.48438 107.984 9.48438C106.062 9.48438 104.422 10.1641 103.062 11.5234ZM100.408 19.6445C99.9746 18.625 99.7578 17.5586 99.7578 16.4453C99.7578 15.332 99.9746 14.2715 100.408 13.2637C100.842 12.2441 101.428 11.3652 102.166 10.627C102.904 9.88867 103.777 9.30273 104.785 8.86914C105.805 8.43555 106.871 8.21875 107.984 8.21875C109.098 8.21875 110.158 8.43555 111.166 8.86914C112.186 9.30273 113.064 9.88867 113.803 10.627C114.541 11.3652 115.127 12.2441 115.561 13.2637C115.994 14.2715 116.211 15.332 116.211 16.4453C116.211 17.5586 115.994 18.625 115.561 19.6445C115.127 20.6523 114.541 21.5254 113.803 22.2637C113.064 23.002 112.186 23.5879 111.166 24.0215C110.158 24.4551 109.098 24.6719 107.984 24.6719C106.871 24.6719 105.805 24.4551 104.785 24.0215C103.777 23.5879 102.904 23.002 102.166 22.2637C101.428 21.5254 100.842 20.6523 100.408 19.6445ZM99.7578 11.6816C98.9141 13.1348 98.4922 14.7227 98.4922 16.4453C98.4922 18.168 98.9141 19.7559 99.7578 21.209C100.613 22.6621 101.768 23.8164 103.221 24.6719C104.674 25.5156 106.262 25.9375 107.984 25.9375C109.707 25.9375 111.295 25.5156 112.748 24.6719C114.201 23.8164 115.35 22.6621 116.193 21.209C117.049 19.7559 117.477 18.168 117.477 16.4453C117.477 14.7227 117.049 13.1348 116.193 11.6816C115.35 10.2285 114.201 9.08008 112.748 8.23633C111.295 7.38086 109.707 6.95312 107.984 6.95312C106.262 6.95312 104.674 7.38086 103.221 8.23633C101.768 9.08008 100.613 10.2285 99.7578 11.6816ZM98.668 21.8418C97.707 20.1895 97.2266 18.3906 97.2266 16.4453C97.2266 14.5 97.707 12.7012 98.668 11.0488C99.6289 9.39648 100.936 8.08984 102.588 7.12891C104.24 6.16797 106.039 5.6875 107.984 5.6875C109.93 5.6875 111.729 6.16797 113.381 7.12891C115.033 8.08984 116.34 9.39648 117.301 11.0488C118.262 12.7012 118.742 14.5 118.742 16.4453C118.742 18.3906 118.262 20.1895 117.301 21.8418C116.34 23.4941 115.033 24.8008 113.381 25.7617C111.729 26.7227 109.93 27.2031 107.984 27.2031C106.039 27.2031 104.24 26.7227 102.588 25.7617C100.936 24.8008 99.6289 23.4941 98.668 21.8418ZM96.9102 11.7695C96.2773 13.2578 95.9609 14.8164 95.9609 16.4453C95.9609 18.0742 96.2773 19.6328 96.9102 21.1211C97.543 22.6094 98.3926 23.8926 99.459 24.9707C100.537 26.0371 101.82 26.8867 103.309 27.5195C104.797 28.1523 106.355 28.4688 107.984 28.4688C109.613 28.4688 111.172 28.1523 112.66 27.5195C114.148 26.8867 115.426 26.0371 116.492 24.9707C117.57 23.8926 118.426 22.6094 119.059 21.1211C119.691 19.6328 120.008 18.0742 120.008 16.4453C120.008 14.8164 119.691 13.2578 119.059 11.7695C118.426 10.2812 117.57 9.00391 116.492 7.9375C115.426 6.85938 114.148 6.00391 112.66 5.37109C111.172 4.73828 109.613 4.42188 107.984 4.42188C106.355 4.42188 104.797 4.73828 103.309 5.37109C101.82 6.00391 100.537 6.85938 99.459 7.9375C98.3926 9.00391 97.543 10.2812 96.9102 11.7695ZM96.4707 23.1074C95.2871 21.0684 94.6953 18.8477 94.6953 16.4453C94.6953 14.043 95.2871 11.8223 96.4707 9.7832C97.666 7.74414 99.2832 6.13281 101.322 4.94922C103.361 3.75391 105.582 3.15625 107.984 3.15625C110.387 3.15625 112.607 3.75391 114.646 4.94922C116.686 6.13281 118.297 7.74414 119.48 9.7832C120.676 11.8223 121.273 14.043 121.273 16.4453C121.273 18.8477 120.676 21.0684 119.48 23.1074C118.297 25.1465 116.686 26.7637 114.646 27.959C112.607 29.1426 110.387 29.7344 107.984 29.7344C105.582 29.7344 103.361 29.1426 101.322 27.959C99.2832 26.7637 97.666 25.1465 96.4707 23.1074ZM94.5723 10.8027C93.8105 12.5957 93.4297 14.4766 93.4297 16.4453C93.4297 18.4141 93.8105 20.3008 94.5723 22.1055C95.3457 23.8984 96.3828 25.4453 97.6836 26.7461C98.9844 28.0469 100.531 29.084 102.324 29.8574C104.129 30.6191 106.016 31 107.984 31C109.953 31 111.834 30.6191 113.627 29.8574C115.432 29.084 116.984 28.0469 118.285 26.7461C119.586 25.4453 120.617 23.8984 121.379 22.1055C122.152 20.3008 122.539 18.4141 122.539 16.4453C122.539 14.4766 122.152 12.5957 121.379 10.8027C120.617 8.99805 119.586 7.44531 118.285 6.14453C116.984 4.84375 115.432 3.8125 113.627 3.05078C111.834 2.27734 109.953 1.89062 107.984 1.89062C106.016 1.89062 104.129 2.27734 102.324 3.05078C100.531 3.8125 98.9844 4.84375 97.6836 6.14453C96.3828 7.44531 95.3457 8.99805 94.5723 10.8027ZM93.4121 22.5977C92.5801 20.6406 92.1641 18.5898 92.1641 16.4453C92.1641 14.3008 92.5801 12.2559 93.4121 10.3105C94.2559 8.35352 95.3809 6.67188 96.7871 5.26562C98.2051 3.84766 99.8867 2.72266 101.832 1.89062C103.789 1.04688 105.84 0.625 107.984 0.625C110.129 0.625 112.174 1.04688 114.119 1.89062C116.076 2.72266 117.758 3.84766 119.164 5.26562C120.582 6.67188 121.707 8.35352 122.539 10.3105C123.383 12.2559 123.805 14.3008 123.805 16.4453C123.805 18.5898 123.383 20.6406 122.539 22.5977C121.707 24.543 120.582 26.2246 119.164 27.6426C117.758 29.0488 116.076 30.168 114.119 31C112.174 31.8438 110.129 32.2656 107.984 32.2656C105.84 32.2656 103.789 31.8438 101.832 31C99.8867 30.168 98.2051 29.0488 96.7871 27.6426C95.3809 26.2246 94.2559 24.543 93.4121 22.5977ZM146.393 20.7871L145.127 18.4844V5.6875H146.393V20.7871ZM148.924 25.1641L147.658 23.0195V5.6875H148.924V25.1641ZM131.486 15.9004L132.752 18.2031V31H131.486V15.9004ZM128.955 11.3477L130.221 13.668V31H128.955V11.3477ZM129.395 5.6875H130.871L145.531 31H144.055L129.395 5.6875ZM132.383 5.6875H133.877L148.52 31H147.008L132.383 5.6875ZM135.354 5.6875H136.83L150.189 28.8027V5.6875H151.455V31H149.961L135.354 5.6875ZM127.689 7.86719V31H126.424V5.6875H127.936L142.543 31H141.084L127.689 7.86719ZM161.088 31H159.822V5.6875H161.088V31ZM158.557 31H157.291V5.6875H158.557V31ZM156.025 31H154.76V5.6875H156.025V31ZM163.619 24.6719H175.73V25.9375H163.619V27.2031H175.73V28.4688H163.619V29.7344H175.73V31H162.354V5.6875H175.73V6.95312H163.619V8.21875H175.73V9.48438H163.619V10.75H175.73V12.0156H163.619V15.1621H175.027V16.4277H163.619V17.6934H175.027V18.959H163.619V20.2246H175.027V21.4902H163.619V24.6719Z" fill="white"/>
</svg>
