<svg width="210" height="27" viewBox="0 0 210 27" fill="none" xmlns="http://www.w3.org/2000/svg">
<path d="M10.592 26.252C7.64 26.252 5.216 25.556 3.32 24.164C1.424 22.748 0.404 20.732 0.26 18.116H7.784C7.856 19.004 8.12 19.652 8.576 20.06C9.032 20.468 9.62 20.672 10.34 20.672C10.988 20.672 11.516 20.516 11.924 20.204C12.356 19.868 12.572 19.412 12.572 18.836C12.572 18.092 12.224 17.516 11.528 17.108C10.832 16.7 9.704 16.244 8.144 15.74C6.488 15.188 5.144 14.66 4.112 14.156C3.104 13.628 2.216 12.872 1.448 11.888C0.704 10.88 0.332 9.572 0.332 7.964C0.332 6.332 0.74 4.94 1.556 3.788C2.372 2.612 3.5 1.724 4.94 1.124C6.38 0.523999 8.012 0.223999 9.836 0.223999C12.788 0.223999 15.14 0.919999 16.892 2.312C18.668 3.68 19.616 5.612 19.736 8.108H12.068C12.044 7.34 11.804 6.764 11.348 6.38C10.916 5.996 10.352 5.804 9.656 5.804C9.128 5.804 8.696 5.96 8.36 6.272C8.024 6.584 7.856 7.028 7.856 7.604C7.856 8.084 8.036 8.504 8.396 8.864C8.78 9.2 9.248 9.5 9.8 9.764C10.352 10.004 11.168 10.316 12.248 10.7C13.856 11.252 15.176 11.804 16.208 12.356C17.264 12.884 18.164 13.64 18.908 14.624C19.676 15.584 20.06 16.808 20.06 18.296C20.06 19.808 19.676 21.164 18.908 22.364C18.164 23.564 17.072 24.512 15.632 25.208C14.216 25.904 12.536 26.252 10.592 26.252ZM35.2562 19.988V26H32.1962C27.0362 26 24.4562 23.444 24.4562 18.332V11.672H21.9722V5.804H24.4562V0.907999H31.5482V5.804H35.2202V11.672H31.5482V18.44C31.5482 18.992 31.6682 19.388 31.9082 19.628C32.1722 19.868 32.6042 19.988 33.2042 19.988H35.2562ZM57.7886 15.668C57.7886 16.22 57.7526 16.772 57.6806 17.324H44.3246C44.3966 18.428 44.6966 19.256 45.2246 19.808C45.7766 20.336 46.4726 20.6 47.3126 20.6C48.4886 20.6 49.3286 20.072 49.8326 19.016H57.3566C57.0446 20.408 56.4326 21.656 55.5206 22.76C54.6326 23.84 53.5046 24.692 52.1366 25.316C50.7686 25.94 49.2566 26.252 47.6006 26.252C45.6086 26.252 43.8326 25.832 42.2726 24.992C40.7366 24.152 39.5246 22.952 38.6366 21.392C37.7726 19.832 37.3406 17.996 37.3406 15.884C37.3406 13.772 37.7726 11.948 38.6366 10.412C39.5006 8.852 40.7006 7.652 42.2366 6.812C43.7966 5.972 45.5846 5.552 47.6006 5.552C49.5926 5.552 51.3566 5.96 52.8926 6.776C54.4286 7.592 55.6286 8.768 56.4926 10.304C57.3566 11.816 57.7886 13.604 57.7886 15.668ZM50.5886 13.904C50.5886 13.04 50.3006 12.368 49.7246 11.888C49.1486 11.384 48.4286 11.132 47.5646 11.132C46.7006 11.132 45.9926 11.372 45.4406 11.852C44.8886 12.308 44.5286 12.992 44.3606 13.904H50.5886ZM79.9722 15.668C79.9722 16.22 79.9362 16.772 79.8642 17.324H66.5082C66.5802 18.428 66.8802 19.256 67.4082 19.808C67.9602 20.336 68.6562 20.6 69.4962 20.6C70.6722 20.6 71.5122 20.072 72.0162 19.016H79.5402C79.2282 20.408 78.6162 21.656 77.7042 22.76C76.8162 23.84 75.6882 24.692 74.3202 25.316C72.9522 25.94 71.4402 26.252 69.7842 26.252C67.7922 26.252 66.0162 25.832 64.4562 24.992C62.9202 24.152 61.7082 22.952 60.8202 21.392C59.9562 19.832 59.5242 17.996 59.5242 15.884C59.5242 13.772 59.9562 11.948 60.8202 10.412C61.6842 8.852 62.8842 7.652 64.4202 6.812C65.9802 5.972 67.7682 5.552 69.7842 5.552C71.7762 5.552 73.5402 5.96 75.0762 6.776C76.6122 7.592 77.8122 8.768 78.6762 10.304C79.5402 11.816 79.9722 13.604 79.9722 15.668ZM72.7722 13.904C72.7722 13.04 72.4842 12.368 71.9082 11.888C71.3322 11.384 70.6122 11.132 69.7482 11.132C68.8842 11.132 68.1762 11.372 67.6242 11.852C67.0722 12.308 66.7122 12.992 66.5442 13.904H72.7722ZM109.248 5.624C111.792 5.624 113.784 6.392 115.224 7.928C116.688 9.464 117.42 11.564 117.42 14.228V26H110.364V15.164C110.364 14.084 110.064 13.244 109.464 12.644C108.864 12.044 108.048 11.744 107.016 11.744C105.984 11.744 105.168 12.044 104.568 12.644C103.968 13.244 103.668 14.084 103.668 15.164V26H96.6118V15.164C96.6118 14.084 96.3118 13.244 95.7118 12.644C95.1358 12.044 94.3318 11.744 93.2998 11.744C92.2438 11.744 91.4158 12.044 90.8158 12.644C90.2158 13.244 89.9158 14.084 89.9158 15.164V26H82.8598V5.804H89.9158V8.468C90.5398 7.604 91.3438 6.92 92.3278 6.416C93.3358 5.888 94.4878 5.624 95.7838 5.624C97.2718 5.624 98.5918 5.948 99.7438 6.596C100.92 7.244 101.844 8.156 102.516 9.332C103.236 8.228 104.184 7.34 105.36 6.668C106.536 5.972 107.832 5.624 109.248 5.624ZM144.002 0.619998V26H136.946V15.812H128.342V26H121.286V0.619998H128.342V10.16H136.946V0.619998H144.002ZM168.703 5.804V26H161.611V23.12C161.011 24.032 160.183 24.776 159.127 25.352C158.071 25.904 156.859 26.18 155.491 26.18C153.139 26.18 151.279 25.412 149.911 23.876C148.567 22.316 147.895 20.204 147.895 17.54V5.804H154.915V16.64C154.915 17.792 155.215 18.704 155.815 19.376C156.439 20.024 157.255 20.348 158.263 20.348C159.295 20.348 160.111 20.024 160.711 19.376C161.311 18.704 161.611 17.792 161.611 16.64V5.804H168.703ZM185.931 5.624C188.259 5.624 190.107 6.404 191.475 7.964C192.843 9.5 193.527 11.588 193.527 14.228V26H186.471V15.164C186.471 14.012 186.171 13.112 185.571 12.464C184.971 11.792 184.167 11.456 183.159 11.456C182.103 11.456 181.275 11.792 180.675 12.464C180.075 13.112 179.775 14.012 179.775 15.164V26H172.719V5.804H179.775V8.684C180.399 7.772 181.239 7.04 182.295 6.488C183.351 5.912 184.563 5.624 185.931 5.624ZM209.315 19.988V26H206.255C201.095 26 198.515 23.444 198.515 18.332V11.672H196.031V5.804H198.515V0.907999H205.607V5.804H209.279V11.672H205.607V18.44C205.607 18.992 205.727 19.388 205.967 19.628C206.231 19.868 206.663 19.988 207.263 19.988H209.315Z" fill="white"/>
</svg>
